<svg width="19" height="19" viewBox="0 0 19 19" fill="none" xmlns="http://www.w3.org/2000/svg">
<path fill-rule="evenodd" clip-rule="evenodd" d="M18.7172 16.2391L15.6056 1.44531C15.5243 1.05458 15.2907 0.712341 14.9564 0.494342C14.6221 0.276342 14.2147 0.200555 13.8244 0.28375L9.43594 1.22688C8.62802 1.40378 8.11348 2.19858 8.28281 3.00812L11.3944 17.8019C11.5373 18.4976 12.1485 18.9977 12.8588 19C12.9653 18.9999 13.0715 18.9885 13.1756 18.9662L17.5641 18.0231C18.373 17.8458 18.8877 17.0495 18.7172 16.2391ZM9.75 2.70156C9.75 2.69594 9.75 2.69312 9.75 2.69312L14.1375 1.75563L14.4497 3.24344L10.0622 4.1875L9.75 2.70156ZM10.6875 7.14344L10.3734 5.65281L14.7628 4.70969L15.0759 6.20031L10.6875 7.14344ZM17.25 16.5569L12.8625 17.4944L12.5503 16.0066L16.9378 15.0625L17.25 16.5484C17.25 16.5541 17.25 16.5569 17.25 16.5569ZM6.75 1H2.25C1.42157 1 0.75 1.67157 0.75 2.5V17.5C0.75 18.3284 1.42157 19 2.25 19H6.75C7.57843 19 8.25 18.3284 8.25 17.5V2.5C8.25 1.67157 7.57843 1 6.75 1ZM2.25 2.5H6.75V4H2.25V2.5ZM6.75 17.5H2.25V16H6.75V17.5Z" fill="#737373"/>
</svg>
